
File size : 770 MiB
Duration : 1h 24mn
Overall bit rate : 1 280 Kbps


Video
ID : 0
Format : MPEG-4 Visual
Format profile : Advanced Simple@L5
Format settings, BVOP : Yes
Format settings, QPel : No
Format settings, GMC : No warppoints
Format settings, Matrix : Default (H.263)
Codec ID : XVID
Codec ID/Hint : XviD
Duration : 1h 24mn
Bit rate : 1 143 Kbps
Width : 640 pixels
Height : 272 pixels
Display aspect ratio : 2.35:1
Frame rate : 25.000 fps
Color space : YUV
Chroma subsampling : 4:2:0
Bit depth : 8 bits
Scan type : Progressive
Compression mode : Lossy
Bits/(Pixel*Frame) : 0.263
Stream size : 688 MiB (89%)
Writing library : XviD 1.2.1 (UTC 2008-12-04)

Audio
ID : 1
Format : MPEG Audio
Format version : Version 1
Format profile : Layer 3
Mode : Joint stereo
Mode extension : MS Stereo
Codec ID : 55
Codec ID/Hint : MP3
Duration : 1h 24mn
Bit rate mode : Constant
Bit rate : 128 Kbps
Channel(s) : 2 channels
Sampling rate : 48.0 KHz
Compression mode : Lossy
Stream size : 77.0 MiB (10%)
Alignment : Aligned on interleaves
Interleave, duration : 24 ms (0.60 video frame)
Interleave, preload duration : 504 ms
Title : VTS_01_1 T80 3_2ch 448Kbps DELAY 0ms
Writing library : LAME3.98r
Encoding settings : -m j -V 4 -q 2 -lowpass 17 -b 128-m j -V 4 -q 2 -lowpass 17 -b 128-m j -V 4 -q 2 -lowpass 17 -b 128

Imdb Link:http://www.imdb.com/title/tt1421049/



Kurt Angle ... Sheriff Will Logan
S. William Hinzman ... Harvey Hix
Kevin Nash ... Jayden Jacobs
Sid Eudy ... Jonah Jacobs
Bill Laing ... Joseph Jacobs
Alan Rowe Kelly ... Mary Rutledge
Bingo O'Malley Virgil
Ray Lloyd Clark Higgins



A horror movie about a sheriff trying to protect his town from three brothers who have come back from the grave.


Source>>>>>>>>>thanks Sam bro

Sample Provided


Greets:

*THC*,HiTM4N,MUSE,PrisM,DiGiTaL iNK,ViSiON,LEGi0N,FLAWL3SS,Rx,Hibees,aXXo,xXTHORNXx,Noir,IMAGiNE
PDU,ELEKTRI4KA,KART3LDVD,CTFX,202122,rosco,Toon,StevieL,skrufern + Zia,Smelly and Fabreezy bro.
All the people that make p2p what it is...THANKS